<?xml version="1.0" encoding="utf-8"?>
<!-- Generator: Adobe Illustrator 23.0.1, SVG Export Plug-In . SVG Version: 6.00 Build 0)  -->
<svg version="1.1" xmlns="http://www.w3.org/2000/svg" xmlns:xlink="http://www.w3.org/1999/xlink" x="0px" y="0px"
	 viewBox="0 0 204.1 204.1" style="enable-background:new 0 0 204.1 204.1;" xml:space="preserve">
<style type="text/css">
	.st0{fill:#FFFFFF;}
	.st1{fill:#FFFFFF;stroke:#9ABD4B;stroke-width:4.4111;stroke-miterlimit:10;}
	.st2{fill:#5D7031;}
	.st3{fill:#FFFFFF;stroke:#FFFFFF;stroke-width:6;stroke-linejoin:round;stroke-miterlimit:10;}
	.st4{fill:#666565;}
	.st5{fill:none;stroke:#9ABD4B;stroke-width:4.4111;stroke-miterlimit:10;}
	.st6{fill:#D8AE58;}
	.st7{fill:#FFFFFF;stroke:#FFFFFF;stroke-width:6;stroke-miterlimit:10;}
	.st8{fill:none;}
	.st9{fill:#666665;}
	.st10{fill:none;stroke:#666665;stroke-width:2;stroke-linecap:round;stroke-linejoin:round;stroke-miterlimit:10;}
	.st11{fill:none;stroke:#666665;stroke-width:2;stroke-miterlimit:10;}
	.st12{fill:none;stroke:#666665;stroke-width:2.1;stroke-miterlimit:10;}
	.st13{fill:none;stroke:#D42027;stroke-width:2;stroke-linejoin:round;stroke-miterlimit:10;}
	.st14{fill:none;stroke:#D42027;stroke-linejoin:round;stroke-miterlimit:10;}
	.st15{fill:none;stroke:#D42027;stroke-width:2;stroke-linecap:round;stroke-linejoin:round;stroke-miterlimit:10;}
	.st16{fill:none;stroke:#D42027;stroke-miterlimit:10;}
</style>
<g id="BkDrp">
	<circle class="st0" cx="102.1" cy="102.1" r="102.1"/>
</g>
<g id="logo">
	<g id="XMLID_257_">
		<circle id="XMLID_23_" class="st1" cx="103.1" cy="96.4" r="76.5"/>
		<g id="XMLID_222_">
			<path id="XMLID_225_" class="st2" d="M78.9,81.6h2.2l-8.5-17.7l-8.5,17.7h2.2l-2.2,4.7h2.2l-2.2,4.7h7.4V95
				c0,0.6,0.5,1.1,1.1,1.1l0,0c0.6,0,1.1-0.5,1.1-1.1v-4.1h7.4l-2.2-4.7h2.2L78.9,81.6z"/>
			<path id="XMLID_224_" class="st2" d="M73.7,90.9h7.4l-2.2-4.7h2.2l-2.2-4.7h2.2l-8.5-17.7V96l0,0c0.6,0,1.1-0.5,1.1-1.1V90.9z"/>
		</g>
		<path id="XMLID_43_" class="st3" d="M156.8,113.8c0,0-10.3-1.2-14.2,7.6c0,0-1.5,6.1-5.5,8c0,0,12.6-3.5,16.7-6.3
			c0,0,4.6-5.2,6.3-6.5"/>
		<g id="XMLID_217_">
			<path id="XMLID_220_" class="st2" d="M165.2,77.3h3.3L156,51.2l-12.5,26.2h3.3l-3.3,6.9h3.3l-3.3,6.9h10.9v6
				c0,0.9,0.7,1.6,1.6,1.6l0,0c0.9,0,1.6-0.7,1.6-1.6v-6h10.9l-3.3-6.9h3.3L165.2,77.3z"/>
			<path id="XMLID_219_" class="st2" d="M157.6,91.2h10.9l-3.3-6.9h3.3l-3.3-6.9h3.3L156,51.2v47.5l0,0c0.9,0,1.6-0.7,1.6-1.6V91.2z
				"/>
		</g>
		<g id="XMLID_212_">
			<path id="XMLID_216_" class="st2" d="M138.1,79.3h1.9L132.8,64l-7.3,15.3h1.9l-1.9,4h1.9l-1.9,4h6.4v3.5c0,0.5,0.4,0.9,0.9,0.9
				l0,0c0.5,0,0.9-0.4,0.9-0.9v-3.5h6.4l-1.9-4h1.9L138.1,79.3z"/>
			<path id="XMLID_215_" class="st2" d="M133.7,87.4h6.4l-1.9-4h1.9l-1.9-4h1.9L132.8,64v27.8l0,0c0.5,0,0.9-0.4,0.9-0.9V87.4z"/>
		</g>
		<g id="XMLID_209_">
			<path id="XMLID_211_" class="st2" d="M55.8,78.2h2.8L47.9,56.6L37.2,78.2H40l-2.8,5.7H40l-2.8,5.7h9.4v4.9c0,0.7,0.6,1.3,1.3,1.3
				l0,0c0.7,0,1.3-0.6,1.3-1.3v-4.9h9.4l-2.8-5.7h2.8L55.8,78.2z"/>
			<path id="XMLID_210_" class="st2" d="M49.3,89.7h9.4l-2.8-5.7h2.8l-2.8-5.7h2.8L47.9,56.6v39.3l0,0c0.7,0,1.3-0.6,1.3-1.3V89.7z"
				/>
		</g>
		<path id="XMLID_206_" class="st4" d="M68.7,98.3"/>
		<circle id="XMLID_205_" class="st5" cx="103.1" cy="96.4" r="76.5"/>
		<g id="XMLID_134_">
			<path id="XMLID_135_" class="st4" d="M25.9,137.4l-0.9-1.9l-11.7,5.7l-0.9-1.8l11.7-5.7l-0.9-1.9l1.9-0.9l2.7,5.6L25.9,137.4z"/>
			<path id="XMLID_149_" class="st4" d="M31.5,142.6l-13.1,7.8l-1-1.7l6.1-3.7l-1.1-1.8l-6.1,3.7l-1-1.7l13.1-7.8l1,1.7l-5.1,3
				l1.1,1.8l5.1-3L31.5,142.6z"/>
			<path id="XMLID_153_" class="st4" d="M25,153.7l-1.2-1.6l-3.1,1.7l-1.1-1.6l13.7-7l1.2,1.7l-11,10.8l-1.2-1.7L25,153.7z
				 M26.6,152.1l4.1-3.7l0,0l-4.8,2.7L26.6,152.1z"/>
			<path id="XMLID_156_" class="st4" d="M41.8,155.6l-11.4,10l-1.3-1.5l7-6.2l-7.9,5.2l-0.9-1.1l6.2-7.1l0,0l-7,6.2l-1.3-1.5
				l11.4-10l1.8,2.1l-6,7l0,0l7.7-5L41.8,155.6z"/>
			<path id="XMLID_180_" class="st4" d="M42.7,159.5l-2.6,2.7l1.5,1.4l-1.5,1.6l-1.5-1.4l-3.4,3.6l2.2,2.1l-1.5,1.6l-3.7-3.5
				l10.5-11l3.6,3.4l-1.5,1.6L42.7,159.5z"/>
			<path id="XMLID_182_" class="st4" d="M47.3,166.3l0.4-0.5c0.7-0.8,0.7-1.5,0.3-1.9c-0.4-0.3-1-0.2-1.5,0.3
				c-0.4,0.5-0.7,1-0.7,1.8l-0.4,3.7c-0.2,1.5-0.3,2.4-1.4,3.8c-1.4,1.7-3.2,1.8-4.5,0.7c-1.3-1-1.5-2.8-0.1-4.5l1-1.2l1.6,1.3
				l-0.9,1.1c-0.6,0.7-0.6,1.3-0.2,1.7c0.4,0.3,1,0.2,1.6-0.5c0.5-0.6,0.7-1.2,0.8-2l0.2-2.9c0.2-2,0.2-2.6,1.5-4.3
				c1.3-1.6,3.1-1.8,4.4-0.7c1.3,1.1,1.4,2.9,0.1,4.5l-0.7,0.8L47.3,166.3z"/>
			<path id="XMLID_199_" class="st4" d="M50.7,182.1l1.6-6.2c-0.2-0.1-0.5-0.3-0.6-0.3l-3.3,5.2l-1.7-1.1l8.1-12.8l2.9,1.8
				c1.6,1,1.4,3.2,0.1,5.2c-1.2,1.9-2.6,2.7-3.8,2.8l-1.7,6.6L50.7,182.1z M53.1,173.6l0.5,0.3c1.1,0.7,1.5,0.7,2.7-1.2
				c0.7-1,1-1.9,0.3-2.4l-1.1-0.7L53.1,173.6z"/>
			<path id="XMLID_203_" class="st4" d="M55.9,185l-1.8-1l7.3-13.3l1.8,1L55.9,185z"/>
			<path id="XMLID_218_" class="st4" d="M62,188l-2-0.9l4.1-14.8l2,0.9L62.7,184l0,0l6.1-9.6l2,0.9L62,188z"/>
			<path id="XMLID_227_" class="st4" d="M72.8,178.3l-1.3,3.5l1.9,0.7l-0.7,2l-1.9-0.7l-1.7,4.6l2.9,1.1l-0.7,2l-4.8-1.8l5.2-14.3
				l4.6,1.7l-0.7,2L72.8,178.3z"/>
			<path id="XMLID_229_" class="st4" d="M77.7,193.5l-0.2-6.4c-0.3-0.1-0.5-0.2-0.6-0.2l-1.6,5.9l-1.9-0.5l4-14.6l3.3,0.9
				c1.9,0.5,2.3,2.6,1.6,5c-0.6,2.2-1.7,3.4-2.8,3.8l0.3,6.8L77.7,193.5z M77.5,184.7l0.6,0.2c1.3,0.4,1.7,0.2,2.3-1.9
				c0.3-1.2,0.4-2.1-0.4-2.4l-1.3-0.3L77.5,184.7z"/>
			<path id="XMLID_232_" class="st4" d="M89.6,192.3l-1.9-0.3l-0.9,3.4l-1.9-0.3l4.5-14.7l2,0.3l0.1,15.4l-2-0.3L89.6,192.3z
				 M89.6,190.1l0.2-5.5l0,0l-1.4,5.3L89.6,190.1z"/>
			<path id="XMLID_235_" class="st4" d="M100.8,181.6l-1,15.2l-2-0.1l-1.4-8.8l0,0l-0.6,8.7l-2-0.1l1-15.2l2.1,0.1l1.3,8.5l0,0
				l0.6-8.4L100.8,181.6z"/>
			<path id="XMLID_237_" class="st4" d="M106.1,185.9l0-1.2c0-0.5-0.4-1.2-1-1.2c-0.7,0-1,0.8-1,1.3l0.2,8.8c0,0.5,0.3,1.2,1.1,1.2
				c0.8,0,1.1-0.7,1.1-2l-0.1-2.3l-1.1,0l0-2.2l3-0.1l0.1,4.7c0,2.1-0.8,3.9-2.9,4c-2.3,0-3.1-1.8-3.1-3.3l-0.2-8.8
				c0-1.5,0.7-3.4,3-3.5c2.1,0,3,1.8,3.1,3.3l0,1.2L106.1,185.9z"/>
			<path id="XMLID_239_" class="st4" d="M115.3,193.9l0.2,2.2l-4.7,0.5l-1.5-15.1l2-0.2l1.3,13L115.3,193.9z"/>
			<path id="XMLID_241_" class="st4" d="M117.3,182.6l0.6,3.7l2-0.3l0.4,2.1l-2,0.3l0.8,4.9l3.1-0.5l0.4,2.1l-5.1,0.9l-2.5-15
				l4.8-0.8l0.4,2.1L117.3,182.6z"/>
			<path id="XMLID_243_" class="st4" d="M129.2,193.3l-3.4-5.5c-0.3,0.1-0.6,0.1-0.6,0.2l1.5,5.9l-2,0.5l-3.7-14.7l3.3-0.8
				c1.9-0.5,3.3,1.1,3.9,3.5c0.6,2.2,0.2,3.8-0.6,4.6l3.7,5.8L129.2,193.3z M124.6,185.8l0.6-0.2c1.3-0.3,1.6-0.6,1-2.8
				c-0.3-1.2-0.7-2-1.5-1.9l-1.3,0.3L124.6,185.8z"/>
			<path id="XMLID_246_" class="st4" d="M133,180.7l-0.2-0.6c-0.3-1-0.9-1.4-1.4-1.3c-0.5,0.2-0.7,0.8-0.5,1.4
				c0.2,0.6,0.5,1.1,1.1,1.6l2.9,2.3c1.2,0.9,1.9,1.5,2.5,3.2c0.7,2.1-0.2,3.7-1.7,4.2c-1.6,0.5-3.2-0.2-3.9-2.3l-0.5-1.5l1.9-0.7
				l0.5,1.3c0.3,0.9,0.8,1.2,1.3,1c0.5-0.2,0.7-0.8,0.4-1.6c-0.3-0.8-0.7-1.3-1.3-1.7l-2.4-1.6c-1.6-1.3-2.2-1.6-2.8-3.5
				c-0.7-1.9,0.1-3.6,1.7-4.2c1.6-0.6,3.2,0.3,3.9,2.2l0.3,1L133,180.7z"/>
			<path id="XMLID_248_" class="st4" d="M146.1,183.2l-1.8,0.9l1.2,3.4l-1.7,0.8l-4.5-14.7l1.8-0.9l8.7,12.6l-1.8,0.9L146.1,183.2z
				 M144.8,181.3l-2.9-4.6l0,0l1.8,5.2L144.8,181.3z"/>
			<path id="XMLID_251_" class="st4" d="M149.2,173l-0.3-0.5c-0.5-0.9-1.2-1.2-1.6-1c-0.4,0.3-0.5,0.9-0.2,1.5
				c0.3,0.6,0.7,0.9,1.4,1.3l3.3,1.6c1.3,0.7,2.2,1.1,3.1,2.7c1.1,1.9,0.5,3.6-0.9,4.5c-1.4,0.8-3.2,0.4-4.3-1.4l-0.8-1.4l1.8-1
				l0.7,1.2c0.5,0.8,1,1,1.5,0.7c0.4-0.3,0.5-0.9,0.1-1.7c-0.4-0.7-0.9-1.1-1.6-1.4l-2.6-1.1c-1.8-0.9-2.4-1.1-3.5-2.9
				c-1-1.8-0.7-3.5,0.8-4.4c1.5-0.9,3.2-0.3,4.3,1.4l0.5,0.9L149.2,173z"/>
			<path id="XMLID_253_" class="st4" d="M155.1,169.1l-0.4-0.5c-0.6-0.9-1.3-1.1-1.7-0.8c-0.4,0.3-0.5,0.9-0.1,1.5
				c0.4,0.5,0.7,0.9,1.5,1.2l3.5,1.4c1.4,0.5,2.3,0.9,3.3,2.4c1.3,1.8,0.8,3.6-0.5,4.5c-1.3,0.9-3.1,0.7-4.4-1.1l-0.9-1.3l1.7-1.2
				l0.8,1.2c0.5,0.8,1.1,0.9,1.5,0.6c0.4-0.3,0.5-0.9-0.1-1.7c-0.5-0.7-1-1-1.7-1.3l-2.7-0.9c-1.9-0.8-2.5-0.9-3.7-2.6
				c-1.2-1.7-0.9-3.5,0.5-4.5c1.4-1,3.2-0.6,4.4,1.1l0.6,0.9L155.1,169.1z"/>
			<path id="XMLID_255_" class="st4" d="M161.9,162.4l5.6,6.7c1,1.2,1.5,3.2-0.1,4.5c-1.7,1.4-3.5,0.5-4.5-0.7l-5.6-6.7
				c-1-1.2-1.6-3.1,0.2-4.5C159,160.4,160.9,161.2,161.9,162.4z M160.3,163.7c-0.3-0.3-1.1-0.8-1.5-0.4c-0.5,0.5-0.2,1.3,0,1.6
				l5.6,6.7c0.3,0.4,1.1,0.8,1.6,0.4c0.4-0.4,0.2-1.2-0.1-1.6L160.3,163.7z"/>
			<path id="XMLID_259_" class="st4" d="M166.6,159.5l-0.8-0.9c-0.3-0.3-1.1-0.6-1.5-0.2c-0.5,0.5-0.2,1.3,0.1,1.6l6.2,6.2
				c0.3,0.3,1.1,0.7,1.6,0.2c0.4-0.4,0.1-1.2-0.2-1.5l-0.8-0.9l1.5-1.4l0.8,0.9c1.1,1.1,1.7,3.1,0.3,4.5c-1.6,1.6-3.5,0.8-4.6-0.2
				l-6.2-6.3c-1.1-1.1-1.8-3-0.2-4.6c1.5-1.4,3.4-0.8,4.5,0.3l0.8,0.9L166.6,159.5z"/>
			<path id="XMLID_261_" class="st4" d="M178.5,162.6l-1.4,1.5L165.8,154l1.4-1.5L178.5,162.6z"/>
			<path id="XMLID_263_" class="st4" d="M179.7,155.6l-1.2,1.5l2.5,2.5l-1.2,1.5l-10.5-11.2l1.3-1.6l13.4,7.6l-1.3,1.6L179.7,155.6z
				 M177.8,154.5l-4.7-2.9l0,0l3.9,3.9L177.8,154.5z"/>
			<path id="XMLID_266_" class="st4" d="M176.8,143.2l-1.2,1.7l10.7,7.4l-1.2,1.7l-10.7-7.4l-1.2,1.7l-1.8-1.2l3.5-5.1L176.8,143.2z
				"/>
			<path id="XMLID_268_" class="st4" d="M189.7,147.1l-1,1.7l-13-7.8l1-1.7L189.7,147.1z"/>
			<path id="XMLID_270_" class="st4" d="M182.9,134.3l7.8,4c1.4,0.7,2.6,2.4,1.7,4.2c-1,2-3.1,1.8-4.4,1.1l-7.8-4
				c-1.4-0.7-2.6-2.3-1.6-4.3C179.5,133.6,181.5,133.6,182.9,134.3z M182,136.1c-0.4-0.2-1.3-0.3-1.6,0.2c-0.3,0.6,0.3,1.3,0.6,1.5
				l7.8,4c0.4,0.2,1.3,0.3,1.6-0.3c0.3-0.5-0.3-1.2-0.7-1.4L182,136.1z"/>
			<path id="XMLID_273_" class="st4" d="M182.9,126.1l14,5.8l-0.8,1.9l-8.8-1.5l0,0l8,3.3l-0.8,1.9l-14-5.8l0.8-2l8.5,1.5l0,0
				l-7.8-3.2L182.9,126.1z"/>
		</g>
		<g id="XMLID_56_">
			<g id="XMLID_491_">
				<path id="XMLID_515_" class="st4" d="M73.6,151.6h-1.5l-0.3,2.1h-1.5l1.8-8.8h1.6l1.8,8.8h-1.6L73.6,151.6z M73.3,150.4
					l-0.5-3.2h0l-0.5,3.2H73.3z"/>
				<path id="XMLID_513_" class="st4" d="M81.9,144.9v8.8h-1.6l-1.6-5.1h0v5.1h-1.6v-8.8h1.7l1.5,4.9h0v-4.9H81.9z"/>
				<path id="XMLID_511_" class="st4" d="M86.9,147.4v-0.7c0-0.3-0.3-0.7-0.7-0.7c-0.6,0-0.8,0.5-0.8,0.7v5.1c0,0.3,0.2,0.7,0.8,0.7
					c0.6,0,0.9-0.4,0.9-1.1v-1.3h-0.9v-1.3h2.3v2.7c0,1.2-0.7,2.3-2.3,2.3c-1.8,0-2.4-1.1-2.4-2v-5.1c0-0.9,0.6-2,2.4-2
					c1.6,0,2.3,1.1,2.3,2v0.7H86.9z"/>
				<path id="XMLID_509_" class="st4" d="M93.9,152.4v1.3h-3.6v-8.8h1.6v7.6H93.9z"/>
				<path id="XMLID_507_" class="st4" d="M97.2,146.1v2.2h1.6v1.3h-1.6v2.9h2.4v1.3h-4v-8.8h3.8v1.3H97.2z"/>
				<path id="XMLID_504_" class="st4" d="M104.9,153.7l-1.5-3.6c-0.2,0-0.4,0-0.5,0v3.6h-1.6v-8.8h2.6c1.5,0,2.2,1.1,2.2,2.5
					c0,1.3-0.6,2.2-1.3,2.5l1.7,3.8H104.9z M102.9,148.8h0.5c1,0,1.3-0.1,1.3-1.4c0-0.7-0.2-1.3-0.8-1.3h-1V148.8z"/>
				<path id="XMLID_502_" class="st4" d="M111,147.3V147c0-0.6-0.3-1-0.7-1c-0.4,0-0.7,0.3-0.7,0.7c0,0.4,0.1,0.7,0.4,1.1l1.6,1.8
					c0.6,0.7,1,1.2,1,2.2c0,1.3-1.1,2-2.3,2c-1.3,0-2.3-0.7-2.3-2v-0.9h1.6v0.8c0,0.5,0.3,0.8,0.7,0.8c0.4,0,0.7-0.3,0.7-0.8
					c0-0.5-0.2-0.8-0.5-1.2l-1.3-1.3c-0.8-1-1.2-1.3-1.2-2.5c0-1.2,1-2,2.3-2c1.3,0,2.3,0.8,2.3,2v0.6H111z"/>
				<path id="XMLID_500_" class="st4" d="M114.4,152.1h1.6v1.6h-1.6V152.1z"/>
				<path id="XMLID_497_" class="st4" d="M122.4,146.7v5.1c0,0.9-0.7,2-2.3,2c-1.7,0-2.4-1.1-2.4-2v-5.1c0-0.9,0.6-2,2.4-2
					C121.7,144.7,122.4,145.8,122.4,146.7z M120.8,146.7c0-0.3-0.3-0.7-0.7-0.7c-0.6,0-0.8,0.5-0.8,0.7v5.1c0,0.3,0.2,0.8,0.8,0.8
					c0.5,0,0.7-0.5,0.7-0.8V146.7z"/>
				<path id="XMLID_494_" class="st4" d="M127.8,153.7l-1.5-3.6c-0.2,0-0.4,0-0.5,0v3.6h-1.6v-8.8h2.6c1.5,0,2.2,1.1,2.2,2.5
					c0,1.3-0.6,2.2-1.3,2.5l1.7,3.8H127.8z M125.8,148.8h0.5c1,0,1.3-0.1,1.3-1.4c0-0.7-0.2-1.3-0.8-1.3h-1V148.8z"/>
				<path id="XMLID_492_" class="st4" d="M134,147.4v-0.7c0-0.3-0.3-0.7-0.7-0.7c-0.6,0-0.8,0.5-0.8,0.7v5.1c0,0.3,0.2,0.7,0.8,0.7
					c0.6,0,0.9-0.4,0.9-1.1v-1.3h-0.9v-1.3h2.3v2.7c0,1.2-0.7,2.3-2.3,2.3c-1.8,0-2.4-1.1-2.4-2v-5.1c0-0.9,0.6-2,2.4-2
					c1.6,0,2.3,1.1,2.3,2v0.7H134z"/>
			</g>
		</g>
		<g id="XMLID_1_">
			<g id="XMLID_427_">
				<path id="XMLID_446_" class="st4" d="M79.1,49v2.4h1.8v1.4h-1.8V56h2.7v1.4h-4.4v-9.8h4.2V49H79.1z"/>
				<path id="XMLID_444_" class="st4" d="M87,50.3v-0.4c0-0.7-0.4-1.1-0.8-1.1c-0.4,0-0.8,0.3-0.8,0.8c0,0.4,0.1,0.7,0.5,1.2l1.8,2
					c0.7,0.8,1.1,1.3,1.1,2.5c0,1.4-1.2,2.2-2.6,2.2c-1.4,0-2.5-0.8-2.5-2.2v-1h1.8v0.9c0,0.6,0.3,0.9,0.8,0.9
					c0.4,0,0.8-0.3,0.8-0.9c0-0.5-0.2-0.9-0.6-1.3l-1.5-1.5c-0.9-1.1-1.3-1.4-1.3-2.7c0-1.3,1.1-2.2,2.6-2.2c1.5,0,2.5,0.9,2.5,2.2
					v0.7H87z"/>
				<path id="XMLID_442_" class="st4" d="M95.9,49h-1.8v8.4h-1.8V49h-1.8v-1.4h5.4V49z"/>
				<path id="XMLID_440_" class="st4" d="M96.9,55.6h1.8v1.8h-1.8V55.6z"/>
				<path id="XMLID_438_" class="st4" d="M104.6,47.6h1.8v9.8h-1.8V49h-0.8v-1L104.6,47.6z"/>
				<path id="XMLID_435_" class="st4" d="M108.4,51.4c0-0.1,0-1.2,0-1.4c0-1.5,1-2.6,2.8-2.6c1.8,0,2.6,1.2,2.6,2.2c0,0,0,4.7,0,4.9
					c0,1.6-1.1,2.9-2.7,2.9c-1.7,0-2.4-1.2-2.4-2.2v-0.8h1.7v0.8c0,0.4,0.3,0.8,0.8,0.8c0.7,0,0.9-0.7,0.9-1.5V53
					c-0.2,0.3-0.6,0.5-1.2,0.5C109.2,53.6,108.4,52.6,108.4,51.4z M110.2,51.4c0,0.5,0.4,0.8,0.9,0.8c0.6,0,0.9-0.3,0.9-0.5v-2
					c0-0.3-0.3-0.8-0.8-0.8c-0.7,0-1,0.4-1,1.2C110.2,50.1,110.2,51.3,110.2,51.4z"/>
				<path id="XMLID_431_" class="st4" d="M121.4,54.6c0,1.6-1.1,2.9-2.8,2.9c-1.7,0-2.9-1.3-2.9-2.9c0-1.4,0.7-2.1,1.6-2.5
					c-0.6-0.3-1.3-1.2-1.3-2.2c0-1.5,0.9-2.5,2.5-2.5c1.6,0,2.5,0.9,2.5,2.5c0,1-0.6,1.9-1.3,2.2C120.7,52.5,121.4,53.2,121.4,54.6z
					 M119.6,54.6c0-0.9-0.2-1.6-1-1.8c-0.8,0.2-1.1,0.8-1.1,1.8c0,1,0.4,1.5,1.2,1.5C119.4,56.1,119.6,55.3,119.6,54.6z M117.7,50
					c0,0.5,0.2,1,0.9,1.2c0.6-0.2,0.8-0.7,0.8-1.2c0-0.7-0.3-1.2-0.8-1.2S117.7,49.4,117.7,50z"/>
				<path id="XMLID_428_" class="st4" d="M128.8,53.6c0,0.1,0,1.2,0,1.4c0,1.5-1,2.6-2.8,2.6c-1.8,0-2.6-1.2-2.6-2.2
					c0,0,0-4.7,0-4.9c0-1.6,1-2.9,2.6-2.9c1.7,0,2.5,1.2,2.5,2.2v0.7h-1.7v-0.7c0-0.4-0.3-0.8-0.8-0.8c-0.7,0-0.9,0.8-0.9,1.5v1.5
					c0.2-0.3,0.6-0.5,1.2-0.5C128,51.4,128.8,52.4,128.8,53.6z M127,53.6c0-0.5-0.4-0.8-0.9-0.8c-0.5,0-0.9,0.3-0.9,0.5v2
					c0,0.3,0.3,0.8,0.8,0.8c0.7,0,1-0.4,1-1.2C126.9,54.8,127,53.7,127,53.6z"/>
			</g>
		</g>
		<g id="XMLID_194_">
			<circle id="XMLID_197_" class="st6" cx="103.2" cy="31.8" r="3.9"/>
			
				<ellipse id="XMLID_195_" transform="matrix(0.7714 -0.6364 0.6364 0.7714 4.366 71.305)" class="st0" cx="101.4" cy="29.6" rx="0.8" ry="0.5"/>
		</g>
		<g id="XMLID_191_">
			<circle id="XMLID_193_" class="st6" cx="81" cy="37" r="3.9"/>
			
				<ellipse id="XMLID_192_" transform="matrix(0.7714 -0.6364 0.6364 0.7714 -4.003 58.3868)" class="st0" cx="79.3" cy="34.8" rx="0.8" ry="0.5"/>
		</g>
		<g id="XMLID_188_">
			<circle id="XMLID_190_" class="st6" cx="124.6" cy="37" r="3.9"/>
			
				<ellipse id="XMLID_189_" transform="matrix(0.7714 -0.6364 0.6364 0.7714 5.9572 86.1112)" class="st0" cx="122.8" cy="34.8" rx="0.8" ry="0.5"/>
		</g>
		<ellipse id="XMLID_187_" class="st0" cx="81" cy="38.3" rx="2" ry="1"/>
		<ellipse id="XMLID_186_" class="st0" cx="103.2" cy="33.2" rx="2" ry="1"/>
		<ellipse id="XMLID_185_" class="st0" cx="124.6" cy="38.3" rx="2" ry="1"/>
		<path id="XMLID_40_" class="st7" d="M115.3,87.7c0,0-2.8-1.5-4.3-1.6c0,0-11.1-10.6-13.7-12c0,0-6.7,11-9.7,11.9
			c0,0-0.8,1,2.7,1.3c0,0,3.3,0,3.6,0.4c0,0,1.2,0.4,1.1,1.1"/>
		<path id="XMLID_37_" class="st7" d="M67.7,90.2c0,0-5-3.1-12.8-3.5c0,0-2.3,0.5-4.2,4.3c0,0,0,0.7,1.2,1.3"/>
		<path id="XMLID_11_" class="st7" d="M47.4,108.4c-1.5-0.2-13.2,4.7-13.2,4.7c-23.6,14.8-32.8,12.6-32.8,12.6
			c0-5,8.9-19.2,8.9-19.2c4.7-5.8,1.9-9.6,1.9-9.6C1.8,75.4,3.1,75.2,3.1,75.2c5.8-0.1,27.9,10.1,27.9,10.1
			c3.8,2.1,10.5,4.7,10.5,4.7l5.1,2c1.5,0.8,13.2,0.5,13.2,0.5c23.6-6.8,94.1-6.3,94.1-6.3l7.8,0.6c0,0,30.4,3.7,35.1,11.9
			c0,0-7.2,3.8-11.5,7.8c0,0,6.1-0.7,7.5-1l5.3-0.4c0,0,0.4,0.4-7.7,6.3c0,0-5.5,2.8-12.5,4.8l-7.3,1.6c-6,1.5-11.7,4.4-16.8,5.4
			c0,0-14.7,3-39,1.3s-16.6-2.7-35.7-7.3C59.9,112.4,59.4,110.3,47.4,108.4z"/>
		<path id="XMLID_12_" class="st7" d="M114.7,118.1c0,0-3.6,15.2-10.3,17.4c0,0-3-3-5.1-8.4c-0.7-1.9-1.3-4-1.7-6.4
			c0,0,0.3-2.4,2.3-2.6c0,0,3.2,1.1,4.7,0"/>
		<path id="XMLID_5_" class="st7" d="M74.9,114.8c0,0-4,6.3-9.8,10.1c0,0-2.8,3-4.1,2.7c-0.7-0.2-0.3-2.2-0.1-4.9
			c0,0-1.6-5.2-5.4-8.7c0,0-1.8-1.5,0-2.3c0,0,0.4,0.1,5-1"/>
		<polygon id="XMLID_196_" class="st8" points="94.3,147.3 102,147.3 102,147.3 94.3,147.3 		"/>
		<g id="XMLID_294_">
			<path id="XMLID_315_" class="st8" d="M37.2,112.7"/>
		</g>
		<g id="XMLID_114_">
			<path id="XMLID_312_" class="st8" d="M37.2,87.3"/>
		</g>
		<g id="XMLID_173_">
			<polygon id="XMLID_176_" class="st9" points="6.4,82.3 27.8,90.5 5.8,84.2 			"/>
		</g>
		<g id="XMLID_170_">
			<polygon id="XMLID_316_" class="st9" points="10.7,92.4 22.2,94.7 10.5,94.4 			"/>
		</g>
		<g id="XMLID_167_">
			<polygon id="XMLID_174_" class="st9" points="11.9,102.9 22.2,101.7 12.3,104.9 			"/>
		</g>
		<g id="XMLID_164_">
			<polygon id="XMLID_171_" class="st9" points="8.7,108.6 25.8,105.8 9.1,110.5 			"/>
		</g>
		<g id="XMLID_161_">
			<polygon id="XMLID_168_" class="st9" points="4.7,114.9 26.8,108.5 5.3,116.8 			"/>
		</g>
		<g id="XMLID_158_">
			<polygon id="XMLID_165_" class="st9" points="1.7,120.4 26.6,112.7 2.3,122.3 			"/>
		</g>
		<path id="XMLID_157_" class="st9" d="M184.3,96.6c0-0.4-0.2-0.8-0.6-0.8c-0.1,0-0.5-0.2-0.7-0.2c-0.3-0.1-0.7-0.1-1,0
			c-0.2,0-1,0.3-1.1,0.4c-0.6,0.3-0.6,0.4-1,1c-0.2,0.4-0.1,1.2,0.3,1.4c0.9,0.4,1.4,1.1,2.4,0.9c0.3,0,0.7-0.1,0.9-0.4
			c0.3-0.3,0.4-0.6,0.5-0.9c0.1-0.3,0.1-0.3,0.2-0.6"/>
		<path id="XMLID_22_" class="st10" d="M41.6,109.6c0,0,4.6-6.3,44.9,9.8c0,0-0.8-0.1,11.1,3.3"/>
		<path id="XMLID_9_" class="st11" d="M112.8,124.3c5.6,0.2,16.6,0.6,24.3,0.5c0,0,1.6,0,4.2-0.1"/>
		<g id="XMLID_20_">
			<path id="XMLID_27_" class="st9" d="M156.7,113.9c-1.4-0.1-2.9,0.1-4.2,0.3c-0.3,0.1-0.7,0.2-1,0.2c-0.3,0.1-0.7,0.2-1,0.3
				c-0.3,0.1-0.7,0.2-1,0.4c-0.3,0.1-0.6,0.3-0.9,0.5c-0.3,0.2-0.6,0.3-0.9,0.5l-0.9,0.6c-0.3,0.2-0.5,0.5-0.8,0.7
				c-0.3,0.2-0.5,0.5-0.7,0.7c-0.2,0.3-0.5,0.5-0.7,0.8l-0.6,0.9c-0.4,0.6-0.6,1.2-1,1.8l0-0.1c-0.2,0.9-0.5,1.7-0.8,2.5
				c-0.3,0.8-0.7,1.6-1.1,2.3c-0.4,0.7-1,1.5-1.6,2.1c-0.3,0.3-0.6,0.6-1,0.9c-0.2,0.1-0.4,0.3-0.6,0.4l-0.6,0.3l-0.6-1.5
				c2.8-0.9,5.6-1.9,8.4-2.9c1.4-0.5,2.8-1,4.1-1.6c0.7-0.3,1.3-0.5,2-0.8c0.6-0.3,1.3-0.6,1.9-1l-0.1,0.1c1.1-1.1,2.2-2.2,3.3-3.2
				c0.6-0.5,1.1-1,1.7-1.5c0.6-0.5,1.2-1,1.9-1.4c0,0,0.1,0,0.1,0c0,0,0,0.1,0,0.1c-1.1,1.1-2,2.3-2.9,3.5l-2.8,3.5
				c0,0-0.1,0.1-0.1,0.1l0,0c-0.3,0.2-0.7,0.5-1,0.7l-1,0.6c-0.7,0.4-1.4,0.7-2.1,1c-0.7,0.3-1.4,0.6-2.1,0.9
				c-0.7,0.3-1.4,0.5-2.1,0.8c-1.4,0.5-2.9,0.9-4.3,1.3c-1.4,0.4-2.9,0.8-4.3,1.2c-0.4,0.1-0.9-0.2-1-0.6c-0.1-0.4,0.1-0.7,0.4-0.9
				l0,0l0.5-0.2c0.2-0.1,0.3-0.2,0.5-0.3c0.3-0.2,0.6-0.5,0.9-0.7c0.5-0.5,1-1.1,1.5-1.8c0.4-0.7,0.8-1.4,1.1-2.1
				c0.3-0.7,0.6-1.5,0.8-2.2l0-0.1l0,0c0.4-0.6,0.7-1.3,1.1-1.9l0.7-0.9c0.2-0.3,0.5-0.5,0.8-0.8c0.3-0.3,0.5-0.5,0.8-0.8
				c0.3-0.2,0.6-0.5,0.9-0.7l0.9-0.6c0.3-0.2,0.7-0.3,1-0.5c0.3-0.2,0.7-0.3,1-0.4c0.3-0.1,0.7-0.3,1-0.3c0.4-0.1,0.7-0.2,1.1-0.3
				c0.4-0.1,0.7-0.2,1.1-0.2c1.4-0.2,2.9-0.3,4.3-0.1c0.1,0,0.1,0.1,0.1,0.1C156.8,113.9,156.8,113.9,156.7,113.9z"/>
		</g>
		<g id="XMLID_18_">
			<path id="XMLID_26_" class="st9" d="M115.3,87.7c-0.7-0.3-1.4-0.5-2.2-0.7c-0.4-0.1-0.7-0.2-1.1-0.3c-0.4-0.1-0.7-0.1-1-0.1
				l-0.1,0l-0.1-0.1c-2.4-1.9-4.7-3.9-7-5.9c-1.2-1-2.3-2-3.5-2.9c-0.6-0.5-1.2-1-1.7-1.4c-0.3-0.2-0.6-0.5-0.9-0.7
				c-0.3-0.2-0.6-0.4-0.8-0.6l1.3-0.4c-0.7,1.1-1.4,2.2-2.1,3.3c-0.7,1.1-1.5,2.1-2.3,3.2c-0.8,1-1.6,2.1-2.5,3
				c-0.5,0.5-0.9,1-1.5,1.4c-0.3,0.2-0.5,0.4-0.8,0.6c-0.3,0.2-0.6,0.4-1.1,0.5l0.3-0.2c0.1-0.1,0-0.1,0.1-0.2c0-0.1,0-0.1,0-0.1
				c0,0,0,0,0,0c0,0,0,0,0.1,0.1c0.1,0,0.1,0.1,0.2,0.1c0.1,0,0.2,0.1,0.3,0.1c0.5,0.2,1,0.2,1.6,0.3l0,0c0.6,0,1.2,0.1,1.9,0.2
				c0.3,0,0.6,0.1,0.9,0.2c0.2,0,0.3,0.1,0.5,0.1c0.1,0,0.2,0.1,0.2,0.1c0.1,0,0.2,0.1,0.3,0.2L94,87.5c0.3,0.1,0.5,0.3,0.7,0.5
				c0.2,0.2,0.4,0.5,0.3,0.8c0-0.3-0.2-0.5-0.4-0.6c-0.2-0.1-0.5-0.2-0.7-0.3l-0.1-0.1c0,0-0.1,0-0.1,0c-0.1,0-0.1,0-0.2,0
				c-0.1,0-0.3,0-0.4,0c-0.3,0-0.6,0-0.9,0c-0.6,0-1.2,0-1.8,0.1l0,0c-0.6,0-1.2-0.1-1.8-0.2c-0.2,0-0.3-0.1-0.5-0.1
				c-0.2,0-0.3-0.1-0.5-0.2c-0.2-0.1-0.4-0.3-0.5-0.6c-0.1-0.2-0.1-0.4-0.1-0.6c0-0.2,0.1-0.3,0.2-0.5l0.1-0.1l0.2-0.1
				c0.4-0.2,0.9-0.5,1.3-1c0.4-0.4,0.8-0.9,1.2-1.4c0.8-1,1.6-2,2.3-3c0.7-1,1.5-2.1,2.2-3.2c0.7-1.1,1.4-2.2,2.1-3.2l0.5-0.8
				l0.8,0.5c0.4,0.2,0.7,0.5,1,0.7c0.3,0.2,0.6,0.5,0.9,0.7c0.6,0.5,1.2,1,1.8,1.5c1.1,1,2.3,2.1,3.4,3.1c2.2,2.1,4.4,4.3,6.4,6.5
				l-0.3-0.1c0.4,0,0.8,0.2,1.2,0.3c0.4,0.1,0.7,0.3,1.1,0.5C114,86.9,114.7,87.3,115.3,87.7z"/>
		</g>
		<g id="XMLID_146_">
			<path id="XMLID_148_" class="st9" d="M109.9,87.8L98,77.1l12.5,9.9c0.2,0.2,0.3,0.5,0.1,0.7C110.4,87.9,110.1,87.9,109.9,87.8
				C109.9,87.8,109.9,87.8,109.9,87.8z"/>
		</g>
		<g id="XMLID_143_">
			<path id="XMLID_145_" class="st9" d="M105.1,87.7L97.2,80l8.5,6.9c0.2,0.2,0.2,0.5,0.1,0.7C105.6,87.9,105.3,87.9,105.1,87.7
				C105.1,87.7,105.1,87.7,105.1,87.7z"/>
		</g>
		<g id="XMLID_140_">
			<path id="XMLID_142_" class="st9" d="M100.8,87.3l-4.9-4.7l5.5,3.9c0.2,0.2,0.3,0.5,0.1,0.7C101.4,87.5,101.1,87.5,100.8,87.3
				C100.8,87.4,100.8,87.4,100.8,87.3z"/>
		</g>
		<g id="XMLID_137_">
			<path id="XMLID_139_" class="st9" d="M97.1,87.9l-3.9-3.7l4.5,2.9c0.2,0.1,0.3,0.5,0.2,0.7C97.8,88.1,97.4,88.1,97.1,87.9
				C97.2,88,97.2,87.9,97.1,87.9z"/>
		</g>
		<g id="XMLID_16_">
			<path id="XMLID_25_" class="st9" d="M67.7,90.2c-1.1-0.3-2.2-0.6-3.2-0.9c-0.5-0.1-1.1-0.3-1.6-0.4c-0.5-0.1-1.1-0.2-1.6-0.3
				c-0.5-0.1-1.1-0.2-1.6-0.3c-0.5-0.1-1.1-0.2-1.6-0.2c-0.5-0.1-1.1-0.1-1.6-0.2c-0.5-0.1-1.1-0.1-1.6-0.2l0.3,0c0,0-0.1,0-0.2,0.1
				c-0.1,0-0.2,0.1-0.3,0.1c-0.2,0.1-0.4,0.2-0.6,0.3c-0.4,0.2-0.7,0.5-1.1,0.9c-0.3,0.3-0.7,0.7-1,1.1c-0.3,0.4-0.6,0.8-0.9,1.2
				l0-0.2c0-0.1,0,0,0,0c0,0,0,0,0,0.1c0,0,0,0.1,0,0.2c0,0.1,0.1,0.2,0.1,0.4c0.1,0.2,0.3,0.5,0.5,0.7c-0.3-0.1-0.6-0.2-0.9-0.4
				c-0.2-0.1-0.3-0.2-0.4-0.4c-0.1-0.1-0.1-0.2-0.2-0.2c0,0-0.1-0.1-0.1-0.2c0-0.1,0-0.1-0.1-0.2l0-0.1l0.1-0.2
				c0.2-0.5,0.4-1,0.6-1.5c0.3-0.5,0.5-1,0.9-1.4c0.3-0.5,0.7-0.9,1.2-1.2c0.2-0.2,0.5-0.4,0.7-0.5c0.1-0.1,0.3-0.2,0.4-0.2
				c0.2-0.1,0.3-0.1,0.5-0.2l0.1,0l0.2,0c1.2,0,2.3,0.1,3.4,0.3c1.1,0.2,2.3,0.5,3.3,0.8c1.1,0.4,2.2,0.8,3.2,1.3
				C65.9,88.8,66.9,89.4,67.7,90.2z"/>
		</g>
		<path id="XMLID_133_" class="st9" d="M151.2,93c0-0.1-0.1-0.1-0.1-0.2c0-0.3-0.2-0.5-0.4-0.6c0,0-0.4-0.1-0.5-0.1
			c-0.2-0.1-0.5-0.1-0.7,0c-0.1,0-0.7,0.2-0.8,0.3c-0.4,0.2-0.6,0.5-0.8,1c-0.2,0.2-0.2,0.6,0.1,0.8c0.6,0.3,1.3,0.7,2,0.5
			c0.2,0,0.5-0.1,0.6-0.3c0.2-0.2,0.3-0.4,0.3-0.7c0.1-0.2,0.1-0.2,0.1-0.4C151.1,93.4,151.3,93.1,151.2,93z"/>
		<path id="XMLID_132_" class="st9" d="M136.8,93.2c0,0,0-0.1-0.1-0.1c0-0.2-0.1-0.3-0.3-0.4c0,0-0.2-0.1-0.3-0.1
			c-0.1,0-0.3,0-0.4,0c-0.1,0-0.4,0.1-0.5,0.2c-0.2,0.1-0.4,0.3-0.5,0.6c-0.1,0.2-0.1,0.4,0,0.5c0.4,0.2,0.8,0.4,1.2,0.3
			c0.1,0,0.3-0.1,0.4-0.2c0.1-0.1,0.2-0.2,0.2-0.4c0.1-0.1,0.1-0.1,0.1-0.2C136.8,93.4,136.9,93.2,136.8,93.2z"/>
		<path id="XMLID_131_" class="st9" d="M62.6,89.8c0,0,0-0.1-0.1-0.1c0-0.2-0.1-0.3-0.3-0.4c0,0-0.2-0.1-0.3-0.1c-0.1,0-0.3,0-0.4,0
			c-0.1,0-0.4,0.1-0.5,0.2c-0.3,0.1-0.4,0.3-0.5,0.6c-0.1,0.2-0.1,0.4,0,0.5c0.4,0.2,0.8,0.4,1.2,0.3c0.1,0,0.3-0.1,0.4-0.2
			c0.1-0.1,0.2-0.2,0.2-0.4c0.1-0.1,0.1-0.1,0.1-0.2C62.5,90.1,62.6,89.9,62.6,89.8z"/>
		<path id="XMLID_130_" class="st9" d="M54.7,90.8C54.7,90.8,54.7,90.8,54.7,90.8c-0.1-0.2-0.1-0.3-0.2-0.3c0,0-0.1,0-0.2-0.1
			c-0.1,0-0.2,0-0.3,0c-0.1,0-0.3,0.1-0.3,0.1c-0.2,0.1-0.2,0.2-0.3,0.4c-0.1,0.1-0.1,0.2,0,0.3c0.2,0.1,0.5,0.3,0.8,0.2
			c0.1,0,0.2,0,0.2-0.1c0.1-0.1,0.1-0.2,0.1-0.3c0-0.1,0-0.1,0.1-0.2C54.7,91,54.8,90.9,54.7,90.8z"/>
		<path id="XMLID_129_" class="st9" d="M57.7,88.8C57.7,88.8,57.7,88.8,57.7,88.8c0-0.1-0.1-0.2-0.2-0.2c0,0-0.1,0-0.1,0
			c-0.1,0-0.1,0-0.2,0c0,0-0.2,0.1-0.2,0.1c-0.1,0.1-0.2,0.2-0.2,0.3c0,0.1-0.1,0.2,0,0.2c0.2,0.1,0.4,0.2,0.6,0.2
			c0.1,0,0.1,0,0.2-0.1c0.1-0.1,0.1-0.1,0.1-0.2C57.6,89,57.6,89,57.7,88.8C57.7,89,57.7,88.9,57.7,88.8z"/>
		<path id="XMLID_8_" class="st12" d="M153.8,123.1c5.1-1,10.7-3.9,16.8-5.4l7.3-1.6c7-2,12.5-4.8,12.5-4.8c8.1-5.8,7.7-6.3,7.7-6.3
			l-5.3,0.4c-1.4,0.4-7.5,1-7.5,1c4.2-4,11.5-7.8,11.5-7.8c-4.6-8.2-35.1-11.9-35.1-11.9l-7.8-0.6c0,0-70.5-0.5-94.1,6.3
			c0,0-11.7,0.3-13.2-0.5l-5.1-2c0,0-6.6-2.6-10.5-4.7c0,0-22.2-10.3-27.9-10.1c0,0-1.3,0.1,9.2,21.7c0,0,2.8,3.8-1.9,9.6
			c0,0-8.9,14.2-8.9,19.2c0,0,9.2,2.2,32.8-12.6c0,0,11.7-5,13.2-4.7"/>
		<path id="XMLID_127_" class="st13" d="M190.6,104.3"/>
		<path id="XMLID_126_" class="st9" d="M141.5,98.7c0,0,0-0.1-0.1-0.1c0-0.2-0.1-0.3-0.3-0.4c0,0-0.2-0.1-0.3-0.1
			c-0.1,0-0.3,0-0.4,0c-0.1,0-0.4,0.1-0.5,0.2c-0.3,0.1-0.4,0.3-0.5,0.6c-0.1,0.2-0.1,0.4,0,0.5c0.4,0.2,0.8,0.4,1.2,0.3
			c0.1,0,0.3-0.1,0.4-0.2c0.1-0.1,0.2-0.2,0.2-0.4c0.1-0.1,0.1-0.1,0.1-0.2C141.4,98.9,141.5,98.7,141.5,98.7z"/>
		<path id="XMLID_125_" class="st9" d="M107.5,94.5c0,0,0-0.1-0.1-0.1c0-0.2-0.1-0.3-0.3-0.4c0,0-0.2-0.1-0.3-0.1
			c-0.1,0-0.3,0-0.4,0c-0.1,0-0.4,0.1-0.5,0.2c-0.3,0.1-0.4,0.3-0.5,0.6c-0.1,0.2-0.1,0.4,0,0.5c0.4,0.2,0.8,0.4,1.2,0.3
			c0.1,0,0.3-0.1,0.4-0.2c0.1-0.1,0.2-0.2,0.2-0.4c0.1-0.1,0.1-0.1,0.1-0.2C107.5,94.7,107.5,94.5,107.5,94.5z"/>
		<path id="XMLID_124_" class="st9" d="M72.6,96.5c0-0.1-0.1-0.1-0.1-0.2c0-0.3-0.2-0.5-0.4-0.6c0,0-0.4-0.1-0.5-0.1
			c-0.2-0.1-0.5-0.1-0.7,0c-0.1,0-0.7,0.2-0.8,0.3c-0.4,0.2-0.6,0.5-0.8,1c-0.2,0.2-0.2,0.6,0.1,0.8c0.6,0.3,1.3,0.7,2,0.5
			c0.2,0,0.5-0.1,0.6-0.3c0.2-0.2,0.3-0.4,0.3-0.7c0.1-0.2,0.1-0.2,0.1-0.4C72.5,96.9,72.7,96.6,72.6,96.5z"/>
		<path id="XMLID_123_" class="st9" d="M76.1,105.4c0-0.1-0.1-0.1-0.1-0.2c0-0.3-0.2-0.5-0.4-0.6c0,0-0.4-0.1-0.5-0.1
			c-0.2-0.1-0.5-0.1-0.7,0c-0.1,0-0.7,0.2-0.8,0.3c-0.4,0.2-0.6,0.5-0.8,1c-0.2,0.2-0.2,0.6,0.1,0.8c0.6,0.3,1.3,0.7,2,0.5
			c0.2,0,0.5-0.1,0.6-0.3c0.2-0.2,0.3-0.4,0.3-0.7c0.1-0.2,0.1-0.2,0.1-0.4C76,105.8,76.2,105.5,76.1,105.4z"/>
		<path id="XMLID_122_" class="st9" d="M83.4,98.7c0,0,0-0.1-0.1-0.1c0-0.2-0.1-0.3-0.3-0.4c0,0-0.2-0.1-0.3-0.1c-0.1,0-0.3,0-0.4,0
			c-0.1,0-0.4,0.1-0.5,0.2c-0.3,0.1-0.4,0.3-0.5,0.6c-0.1,0.2-0.1,0.4,0,0.5c0.4,0.2,0.8,0.4,1.2,0.3c0.1,0,0.3-0.1,0.4-0.2
			c0.1-0.1,0.2-0.2,0.2-0.4c0.1-0.1,0.1-0.1,0.1-0.2C83.3,98.9,83.4,98.7,83.4,98.7z"/>
		<path id="XMLID_121_" class="st9" d="M97.1,92.4C97.1,92.4,97.1,92.4,97.1,92.4c-0.1-0.2-0.1-0.3-0.2-0.3c0,0-0.2,0-0.2-0.1
			c-0.1,0-0.2,0-0.3,0c-0.1,0-0.3,0.1-0.3,0.1c-0.2,0.1-0.3,0.2-0.4,0.4c-0.1,0.1-0.1,0.3,0,0.3c0.3,0.1,0.6,0.3,0.9,0.2
			c0.1,0,0.2,0,0.3-0.1c0.1-0.1,0.1-0.2,0.1-0.3c0-0.1,0-0.1,0.1-0.2C97,92.6,97.1,92.5,97.1,92.4z"/>
		<path id="XMLID_120_" class="st9" d="M118.6,97.9C118.6,97.9,118.6,97.9,118.6,97.9c-0.1-0.2-0.1-0.3-0.2-0.3c0,0-0.2,0-0.2-0.1
			c-0.1,0-0.2,0-0.3,0c-0.1,0-0.3,0.1-0.3,0.1c-0.2,0.1-0.3,0.2-0.4,0.4c-0.1,0.1-0.1,0.3,0,0.3c0.3,0.1,0.6,0.3,0.9,0.2
			c0.1,0,0.2,0,0.3-0.1c0.1-0.1,0.1-0.2,0.1-0.3c0-0.1,0-0.1,0.1-0.2C118.6,98.1,118.6,98,118.6,97.9z"/>
		<path id="XMLID_119_" class="st9" d="M149,99.5C149,99.5,149,99.5,149,99.5c-0.1-0.2-0.1-0.3-0.2-0.3c0,0-0.2,0-0.2-0.1
			c-0.1,0-0.2,0-0.3,0c-0.1,0-0.3,0.1-0.3,0.1c-0.2,0.1-0.3,0.2-0.4,0.4c-0.1,0.1-0.1,0.3,0,0.3c0.3,0.1,0.6,0.3,0.9,0.2
			c0.1,0,0.2,0,0.3-0.1c0.1-0.1,0.1-0.2,0.1-0.3c0-0.1,0-0.1,0.1-0.2C149,99.7,149,99.6,149,99.5z"/>
		<path id="XMLID_118_" class="st9" d="M189.4,103.6c0,0-4.2,4.2-5.6,3.5c0,0,7.4,4,15.4-2.8L189.4,103.6z"/>
		<g id="XMLID_115_">
			<path id="XMLID_117_" class="st9" d="M188.9,99.9c0,0-1.1,0.6-2.8,1.6c-0.8,0.5-1.8,1.1-2.8,1.7c-1,0.7-2.1,1.4-2.9,2.3
				c-0.4,0.4-0.9,0.9-0.9,1.3c0,0.1,0,0.2,0,0.2c0,0.1,0.1,0.2,0.1,0.2c0.1,0.1,0.3,0.2,0.5,0.3c0.4,0.1,1,0,1.5-0.1
				c0.2-0.1,0.5-0.1,0.7-0.2c0.2-0.1,0.5-0.2,0.7-0.3c0.9-0.4,1.6-0.7,2.1-1c0.5-0.3,0.8-0.4,0.8-0.4l0.1,0.1c0,0-0.2,0.2-0.7,0.6
				c-0.2,0.2-0.5,0.4-0.8,0.6c-0.3,0.2-0.7,0.5-1.1,0.8c-0.4,0.3-0.9,0.5-1.5,0.7c-0.5,0.2-1.2,0.4-2,0.2c-0.8-0.1-1.6-0.9-1.4-1.9
				c0.3-0.8,0.8-1.3,1.3-1.7c1-0.9,2.1-1.6,3.2-2.2c1.1-0.6,2.1-1.1,2.9-1.5C187.6,100.3,188.8,99.8,188.9,99.9L188.9,99.9z"/>
		</g>
		<g id="XMLID_112_">
			<path id="XMLID_308_" class="st9" d="M164.8,92.2c-1.5,1.8-2.7,3.9-3.7,6c-1,2.1-1.7,4.3-1.8,6.6c-0.1,1.1,0,2.2,0.3,3.3
				c0.3,1,0.8,2,1.4,2.9c0.6,0.9,1.4,1.7,2.2,2.4c0.8,0.7,1.7,1.4,2.7,2.1l0.2,0.2l0.1,0.1c0,0.1,0.2,0.3,0.2,0.4
				c0.1,0.1,0.2,0.3,0.3,0.4c0.2,0.3,0.5,0.5,0.7,0.7c0.1,0.1,0.3,0.2,0.4,0.3c0.2,0.1,0.3,0.2,0.5,0.2c0.2,0.1,0.3,0.1,0.5,0.1
				c0.2,0,0.4,0,0.6,0.1l0,0.2c-0.2,0.1-0.4,0.2-0.6,0.2c-0.2,0-0.4,0.1-0.7,0.1c-0.2,0-0.4,0-0.7-0.1c-0.2,0-0.4-0.1-0.6-0.2
				c-0.4-0.2-0.8-0.4-1.2-0.7c-0.2-0.1-0.3-0.3-0.5-0.4c-0.2-0.2-0.3-0.3-0.5-0.5l0.3,0.3c-0.6-0.3-1.1-0.5-1.6-0.9
				c-0.5-0.3-1.1-0.7-1.6-1.1c-1-0.8-1.9-1.7-2.5-2.9c-1.4-2.2-1.8-4.9-1.5-7.4c0.3-2.5,1.2-4.8,2.5-6.9c1.2-2.1,2.7-4,4.4-5.7
				L164.8,92.2z"/>
		</g>
		<g id="XMLID_109_">
			<path id="XMLID_111_" class="st9" d="M167.3,97.4c-0.2,0.6-0.4,1.2-0.5,1.8c-0.1,0.6-0.3,1.3-0.3,1.9c-0.1,0.6-0.1,1.3-0.1,1.9
				c0,0.3,0,0.6,0,0.9l0.1,0.9l0.2,0.9c0,0.3,0.2,0.6,0.2,0.9c0.1,0.3,0.2,0.6,0.3,0.9c0.1,0.3,0.2,0.6,0.4,0.8l0.5,0.8
				c0.2,0.2,0.4,0.5,0.6,0.7l0.3,0.3l0.3,0.3l0.7,0.6l-0.2-0.1c0.9,0.3,1.8,0.6,2.7,0.8c0.4,0.1,0.9,0.2,1.3,0.2c0.2,0,0.4,0,0.6,0
				c0.1,0,0.1,0,0.2,0c0.1,0,0,0,0,0l-0.4,0.7l0-1l0-1c0-0.6-0.1-1.3-0.2-1.9c0-0.3-0.1-0.6-0.2-0.9c-0.1-0.3-0.2-0.6-0.3-0.8
				c-0.1-0.1-0.1-0.3-0.2-0.4c-0.1-0.1-0.1-0.2-0.2-0.3c-0.1-0.1-0.2-0.2-0.2-0.3c-0.1-0.1-0.2-0.2-0.3-0.2l-0.4-0.3l0-0.2
				c-0.1-0.5-0.1-0.9-0.1-1.4c0-0.5,0-0.9,0-1.4c0.1-0.9,0.3-1.9,0.7-2.7l0.2,0.1c-0.1,0.9,0,1.7,0.1,2.6c0.1,0.4,0.2,0.8,0.2,1.3
				c0.1,0.4,0.2,0.8,0.3,1.2l-0.4-0.5l0.6,0.3c0.2,0.1,0.3,0.3,0.5,0.4c0.2,0.1,0.3,0.3,0.4,0.5c0.1,0.2,0.2,0.3,0.3,0.5
				c0.2,0.4,0.4,0.7,0.5,1.1c0.1,0.4,0.2,0.7,0.3,1.1c0.2,0.7,0.3,1.5,0.3,2.2c0,0.4,0,0.7,0,1.1c0,0.4,0,0.7-0.1,1.1l-0.1,0.6
				l-0.4,0.2c-0.2,0.1-0.5,0.2-0.6,0.2c-0.2,0-0.4,0.1-0.5,0.1c-0.3,0-0.6,0-0.9-0.1c-0.5-0.1-1-0.2-1.5-0.3c-1-0.3-1.9-0.6-2.8-1
				l-0.1-0.1l-0.1-0.1l-0.7-0.7l-0.4-0.4l-0.3-0.4c-0.2-0.3-0.4-0.5-0.6-0.8l-0.5-0.9c-0.2-0.3-0.2-0.6-0.4-1
				c-0.1-0.3-0.2-0.6-0.3-1c-0.1-0.3-0.2-0.7-0.2-1l-0.1-1l0-1c0-0.3,0-0.7,0.1-1c0.1-0.7,0.2-1.3,0.3-1.9c0.3-1.3,0.7-2.5,1.2-3.7
				L167.3,97.4z"/>
		</g>
		<path id="XMLID_108_" class="st14" d="M12.1,103.9"/>
		<path id="XMLID_107_" class="st14" d="M8,111.7"/>
		<g id="XMLID_104_">
			<path id="XMLID_178_" class="st9" d="M184.5,99.9c0,0-0.4,0.3-1.1,0.6c-0.4,0.1-0.8,0.2-1.2,0.3c-0.5,0-1-0.1-1.5-0.2
				c-0.2,0-0.5-0.1-0.7-0.2c-0.2-0.1-0.5-0.2-0.7-0.3c-0.2-0.1-0.4-0.3-0.6-0.4c-0.2-0.2-0.3-0.3-0.4-0.5c-0.1-0.2-0.2-0.3-0.3-0.4
				c-0.1-0.1-0.1-0.3-0.1-0.4c-0.1-0.2-0.1-0.3-0.1-0.3l0.1,0c0,0,0.1,0.1,0.2,0.3c0.1,0.1,0.1,0.2,0.2,0.3c0.1,0.1,0.2,0.2,0.3,0.3
				c0.1,0.1,0.3,0.2,0.4,0.3c0.2,0.1,0.3,0.2,0.5,0.2c0.2,0.1,0.4,0.1,0.6,0.2c0.2,0,0.4,0.1,0.7,0.1c0.4,0,0.9,0,1.3-0.1
				c0.4,0,0.8,0,1.2,0C184,99.7,184.5,99.8,184.5,99.9L184.5,99.9z"/>
		</g>
		<g id="XMLID_13_">
			<path id="XMLID_33_" class="st9" d="M114.7,118.1c-0.2,1.7-0.6,3.4-1.1,5.1c-0.2,0.8-0.5,1.7-0.8,2.5c-0.3,0.8-0.6,1.7-1,2.5
				c-0.7,1.6-1.5,3.2-2.7,4.7c-0.3,0.4-0.6,0.7-0.9,1.1c-0.3,0.3-0.7,0.7-1,1c-0.4,0.3-0.8,0.6-1.2,0.8l-0.7,0.3l-0.7,0.3l-0.5,0.2
				l-0.4-0.5c-0.3-0.3-0.5-0.6-0.8-0.8c-0.2-0.3-0.5-0.6-0.7-0.8c-0.4-0.6-0.8-1.2-1.2-1.8c-0.8-1.2-1.4-2.5-2-3.8
				c-0.3-0.6-0.5-1.3-0.8-2c-0.2-0.7-0.4-1.3-0.6-2c-0.3-1.4-0.6-2.8-0.7-4.2l0-0.1l0-0.1c0-0.2,0.1-0.4,0.1-0.5
				c0.1-0.2,0.1-0.3,0.2-0.5c0.1-0.3,0.3-0.6,0.6-0.9c0.2-0.3,0.5-0.5,0.9-0.7c0.3-0.2,0.7-0.2,1.1-0.3l0.1,0l0.1,0
				c0.7,0.3,1.5,0.5,2.2,0.6c0.4,0.1,0.8,0.1,1.2,0.1c0.4,0,0.8-0.1,1.1-0.3c-0.6,0.5-1.5,0.7-2.3,0.7c-0.8,0-1.6-0.1-2.5-0.3l0.2,0
				c-0.5,0.1-0.9,0.4-1.2,0.8c-0.1,0.2-0.2,0.4-0.3,0.7c0,0.1-0.1,0.3-0.1,0.4c0,0.1-0.1,0.3-0.1,0.4l0-0.2c0.3,1.3,0.6,2.6,1,3.9
				c0.2,0.6,0.4,1.3,0.7,1.9c0.3,0.6,0.5,1.2,0.8,1.8c0.6,1.2,1.2,2.4,1.9,3.5c0.4,0.6,0.7,1.1,1.1,1.6c0.2,0.3,0.4,0.5,0.6,0.8
				c0.2,0.2,0.4,0.5,0.6,0.7l-1-0.2l0.5-0.2l0.5-0.2c0.3-0.2,0.6-0.4,0.9-0.6c0.3-0.3,0.6-0.5,0.9-0.8c0.3-0.3,0.6-0.6,0.8-0.9
				c0.5-0.6,1-1.3,1.5-2c0.5-0.7,0.9-1.4,1.3-2.2C112.2,124.6,113.5,121.4,114.7,118.1z"/>
		</g>
		<path id="XMLID_102_" class="st15" d="M102.2,123.3"/>
		<g id="XMLID_99_">
			<path id="XMLID_101_" class="st9" d="M102.2,132.9c0,0,0.5-0.4,1.2-1.1c0.7-0.7,1.7-1.6,2.6-2.6c0.9-1,1.7-2,2.2-2.9
				c0.1-0.2,0.2-0.4,0.3-0.6c0.1-0.2,0.2-0.3,0.2-0.5c0.1-0.3,0.2-0.4,0.2-0.4s0,0.2-0.1,0.4c0,0.1-0.1,0.3-0.2,0.5
				c-0.1,0.2-0.1,0.4-0.3,0.6c-0.4,0.9-1.1,2.1-2,3.1c-1.6,2.2-3.5,4.1-3.5,4.1c-0.2,0.2-0.5,0.2-0.7,0S102,133.1,102.2,132.9
				C102.2,132.9,102.2,132.9,102.2,132.9z"/>
		</g>
		<g id="XMLID_96_">
			<path id="XMLID_98_" class="st9" d="M99.5,126.6c0,0,0.1,0,0.3,0.1c0.2,0,0.5,0.1,0.8,0c0.4,0,0.8-0.1,1.2-0.2
				c0.4-0.1,0.9-0.3,1.3-0.5c0.2-0.1,0.4-0.2,0.6-0.4c0.2-0.1,0.4-0.3,0.6-0.4c0.4-0.3,0.7-0.6,1-0.9c0.3-0.3,0.5-0.5,0.6-0.7
				c0.1-0.2,0.2-0.3,0.2-0.3s-0.1,0.1-0.2,0.3c-0.1,0.2-0.3,0.5-0.5,0.8c-0.2,0.3-0.5,0.7-0.9,1c-0.2,0.2-0.4,0.3-0.6,0.5
				c-0.2,0.2-0.4,0.3-0.6,0.5c-0.4,0.3-0.9,0.6-1.4,0.8c-0.5,0.2-0.9,0.3-1.3,0.4c-0.4,0.1-0.8,0.1-1,0.1c-0.2,0-0.4,0-0.4,0
				L99.5,126.6z"/>
		</g>
		<g id="XMLID_10_">
			<path id="XMLID_35_" class="st9" d="M74.9,114.8c-0.5,1.1-1.1,2.1-1.8,3.1c-0.7,1-1.4,1.9-2.2,2.9c-0.4,0.5-0.8,0.9-1.2,1.3
				c-0.4,0.4-0.8,0.9-1.3,1.3c-0.4,0.4-0.9,0.8-1.4,1.2c-0.5,0.4-1,0.7-1.5,1.1l0.2-0.1c-0.6,0.7-1.2,1.3-1.9,1.8
				c-0.4,0.3-0.7,0.6-1.2,0.8c-0.2,0.1-0.5,0.2-0.7,0.3c-0.3,0.1-0.6,0.2-1.2,0.1c0.1,0-0.4-0.2-0.5-0.2c-0.1-0.1-0.2-0.2-0.3-0.4
				c-0.1-0.2-0.2-0.4-0.2-0.6c-0.1-0.3-0.1-0.6-0.1-0.8c0-0.5,0-0.9,0.1-1.3c0.1-0.8,0.2-1.7,0.2-2.5l0,0.4c-0.1-0.5-0.3-1-0.5-1.5
				c-0.2-0.5-0.4-1-0.7-1.5c-0.5-1-1-1.9-1.6-2.8c-0.3-0.4-0.6-0.9-0.9-1.3c-0.3-0.4-0.7-0.8-1-1.2l-0.3-0.3
				c-0.1-0.1-0.2-0.2-0.3-0.4c-0.2-0.3-0.4-0.6-0.5-1c-0.1-0.4-0.1-1,0.2-1.3c0.3-0.3,0.6-0.5,0.9-0.6l0.4,0c-0.1,0-0.1,0-0.1,0
				c0,0,0,0,0,0l0.1,0l0.1,0l0.3,0l0.6-0.1L58,111l2.5-0.3c-0.8,0.3-1.6,0.6-2.4,0.8c-0.4,0.1-0.8,0.2-1.2,0.4l-0.6,0.2l-0.3,0.1
				l-0.2,0l-0.1,0l-0.1,0c0,0,0,0-0.2,0l0.4,0c-0.2,0.1-0.4,0.3-0.4,0.4c0,0.1,0,0.2,0,0.3c0.1,0.1,0.2,0.3,0.3,0.4
				c0.1,0.1,0.2,0.1,0.2,0.2l0.3,0.3c0.4,0.4,0.9,0.8,1.3,1.2c0.4,0.4,0.8,0.9,1.1,1.3c0.7,0.9,1.3,1.9,1.9,2.9
				c0.3,0.5,0.5,1,0.7,1.6l0.3,0.8c0.1,0.3,0.2,0.5,0.3,0.8l0.1,0.2l0,0.2c-0.1,0.9-0.1,1.7-0.2,2.5c0,0.4-0.1,0.8-0.1,1.2
				c0,0.2,0,0.3,0,0.4c0,0,0,0.1,0,0c0,0-0.1-0.1-0.1-0.1c0,0-0.1,0-0.1-0.1c0,0-0.1,0-0.1,0l0,0c-0.2,0-0.1,0,0,0
				c0.1,0,0.3-0.1,0.4-0.2c0.3-0.2,0.6-0.4,0.9-0.6c0.6-0.5,1.2-1,1.8-1.6l0.1-0.1l0.1-0.1c0.5-0.3,1-0.6,1.4-1
				c0.5-0.3,0.9-0.7,1.4-1c0.9-0.7,1.8-1.5,2.6-2.3C71.7,118.2,73.4,116.6,74.9,114.8z"/>
		</g>
		<g id="XMLID_90_">
			<polygon id="XMLID_151_" class="st9" points="56.4,114.3 60.5,113.8 57.1,116.1 			"/>
		</g>
		<path id="XMLID_89_" class="st16" d="M59.6,119.1"/>
		<g id="XMLID_82_">
			<polygon id="XMLID_95_" class="st9" points="59.2,118.2 66,116.1 60.1,120 			"/>
		</g>
		<path id="XMLID_79_" class="st16" d="M60.5,122.7"/>
		<g id="XMLID_76_">
			<polygon id="XMLID_92_" class="st9" points="60.2,121.8 69,117.6 61.2,123.5 			"/>
		</g>
		<g id="XMLID_73_">
			<path id="XMLID_162_" class="st9" d="M42.6,108.7c0,0,1.2-0.6,3-1.3c1.8-0.7,4.3-1.6,6.8-2.2c0.6-0.2,1.3-0.3,1.9-0.4
				c0.6-0.1,1.3-0.2,1.9-0.3c0.6-0.1,1.2-0.2,1.7-0.2c0.6,0,1.1-0.1,1.6-0.1c0.5,0,0.9,0,1.3,0c0.4,0,0.7,0.1,1,0.1
				c0.6,0.1,0.9,0.1,0.9,0.1s-0.3,0-0.9,0c-0.3,0-0.6,0-1,0c-0.4,0-0.8,0-1.3,0.1c-0.5,0.1-1,0.2-1.5,0.2c-0.5,0.1-1.1,0.2-1.7,0.4
				c-0.6,0.2-1.2,0.3-1.8,0.5c-0.6,0.2-1.2,0.4-1.8,0.6c-2.4,0.9-4.7,1.9-6.4,2.8c-1.7,0.9-2.8,1.5-2.8,1.5L42.6,108.7z"/>
		</g>
		<g id="XMLID_69_">
			<path id="XMLID_72_" class="st9" d="M64.8,108.4c0,0,4.7,0.8,11.8,2.1c3.5,0.6,7.7,1.3,12.1,2c4.4,0.7,9.1,1.4,13.9,2.1
				c4.7,0.7,9.5,1.3,13.9,1.7c2.2,0.2,4.4,0.4,6.4,0.6c2,0.1,4,0.2,5.8,0.3c1.8,0,3.4,0,4.9,0c1.5,0,2.7-0.2,3.7-0.3
				c1-0.2,1.8-0.3,2.4-0.5c0.5-0.1,0.8-0.2,0.8-0.2s-0.3,0.1-0.8,0.3c-0.5,0.2-1.3,0.4-2.4,0.6c-1,0.2-2.3,0.4-3.8,0.5
				c-1.5,0.1-3.1,0.2-4.9,0.2c-1.8,0-3.7,0-5.8-0.1c-2.1-0.1-4.2-0.2-6.5-0.4c-4.5-0.4-9.2-1-14-1.6c-4.7-0.7-9.5-1.5-13.9-2.2
				c-4.4-0.8-8.5-1.6-12-2.3c-3.5-0.7-6.4-1.4-8.5-1.8C66,108.6,64.8,108.4,64.8,108.4z"/>
		</g>
		<g id="XMLID_6_">
			<path id="XMLID_84_" class="st9" d="M142.4,120.8c0,0,0.8-0.5,2-1.2c1.2-0.6,2.9-1.4,4.7-1.9c0.4-0.1,0.9-0.2,1.3-0.4
				c0.4-0.1,0.9-0.2,1.3-0.2c0.4,0,0.8-0.1,1.2-0.1c0.4,0,0.8,0,1.1,0c0.3,0,0.7,0.1,0.9,0.1c0.3,0,0.5,0.1,0.7,0.1
				c0.4,0.1,0.6,0.1,0.6,0.1s-0.2,0-0.6-0.1c-0.2,0-0.4-0.1-0.7-0.1c-0.3,0-0.6,0-0.9,0c-0.3,0-0.7,0.1-1.1,0.1
				c-0.4,0.1-0.8,0.2-1.2,0.2c-0.4,0.1-0.8,0.2-1.2,0.4c-0.4,0.2-0.8,0.3-1.2,0.5c-1.6,0.7-3.2,1.6-4.3,2.3
				c-1.1,0.7-1.8,1.3-1.8,1.3c-0.3,0.3-0.8,0.2-1.1-0.1C141.9,121.6,142,121.2,142.4,120.8C142.3,120.9,142.4,120.9,142.4,120.8
				L142.4,120.8z"/>
		</g>
		<g id="XMLID_3_">
			<path id="XMLID_78_" class="st9" d="M140.1,125.6c0,0,2.7-1.3,5.5-2.5c1.4-0.6,2.8-1.1,3.9-1.4c0.3-0.1,0.5-0.1,0.7-0.2
				c0.2-0.1,0.4-0.1,0.6-0.1c0.2,0,0.3,0,0.4,0c0.1,0,0.1,0,0.1,0s0,0-0.1,0c-0.1,0-0.2,0-0.4,0c-0.2,0-0.3,0.1-0.6,0.2
				c-0.2,0.1-0.4,0.2-0.7,0.3c-1,0.4-2.3,1.2-3.6,1.9c-2.6,1.5-5.1,3.1-5.1,3.1c-0.3,0.2-0.8,0.1-1-0.2
				C139.5,126.4,139.6,125.9,140.1,125.6C140,125.7,140,125.7,140.1,125.6z"/>
		</g>
		<path id="XMLID_2_" class="st9" d="M40,106.7c0-0.1-0.1-0.1-0.1-0.2c0-0.3-0.2-0.5-0.4-0.6c0,0-0.4-0.1-0.5-0.1
			c-0.2-0.1-0.5-0.1-0.7,0c-0.1,0-0.7,0.2-0.8,0.3c-0.4,0.2-0.6,0.5-0.8,1c-0.2,0.2-0.2,0.6,0.1,0.8c0.6,0.3,1.3,0.7,2,0.5
			c0.2,0,0.5-0.1,0.6-0.3c0.2-0.2,0.3-0.4,0.3-0.7c0.1-0.2,0.1-0.2,0.1-0.4C39.9,107.1,40.1,106.8,40,106.7z"/>
		<g id="XMLID_303_">
			<path id="XMLID_310_" class="st9" d="M177.9,89.8c0,0,0,0.6-0.1,1.2c-0.1,0.3-0.2,0.6-0.4,0.9c-0.2,0.3-0.6,0.4-0.8,0.7
				c-0.5,0.5-0.9,1.1-1.1,1.6c-0.1,0.2-0.2,0.5-0.2,0.6c0,0.2,0,0.3,0,0.3l-0.2,0c0,0,0-0.1-0.1-0.3c0-0.1-0.1-0.2-0.1-0.3
				c0-0.1-0.1-0.3-0.1-0.4c0-0.3,0-0.7,0.1-1.1c0.1-0.4,0.2-0.8,0.4-1.2c0.2-0.4,0.3-0.8,0.5-1.2c0.2-0.3,0.6-0.5,0.9-0.7
				c0.6-0.3,1.2-0.2,1.2-0.2L177.9,89.8z"/>
		</g>
		<path id="XMLID_113_" class="st9" d="M171.6,92.2c0,0,0-0.1-0.1-0.1c0-0.2-0.1-0.3-0.3-0.4c0,0-0.2-0.1-0.3-0.1
			c-0.1,0-0.3,0-0.4,0c-0.1,0-0.4,0.1-0.5,0.2c-0.2,0.1-0.4,0.3-0.5,0.6c-0.1,0.2-0.1,0.4,0,0.5c0.4,0.2,0.8,0.4,1.2,0.3
			c0.1,0,0.3-0.1,0.4-0.2c0.1-0.1,0.2-0.2,0.2-0.4c0.1-0.1,0.1-0.1,0.1-0.2C171.5,92.5,171.6,92.3,171.6,92.2z"/>
		<g id="XMLID_160_">
			<path id="XMLID_318_" class="st9" d="M54.9,91.1c0,0-1.4,0.8-3.7,1.6c-1.1,0.4-2.5,0.8-3.9,1.2c-0.7,0.1-1.5,0.3-2.3,0.4
				c-0.8,0.1-1.6,0.2-2.4,0.3c-1.6,0.2-3.2,0.4-4.7,0.5c-0.7,0.1-1.5,0.1-2.2,0.1c-0.7,0-1.3,0-1.9-0.1c-0.6,0-1.2-0.1-1.6-0.2
				c-0.5-0.1-0.9-0.1-1.2-0.2c-0.7-0.2-1.1-0.3-1.1-0.3l0-0.1c0,0,0.4,0.1,1.1,0.1c0.3,0.1,0.8,0.1,1.2,0.1c0.5,0,1,0.1,1.6,0
				c0.6,0,1.2,0,1.9-0.1c0.7-0.1,1.4-0.1,2.1-0.2c1.5-0.2,3-0.5,4.6-0.8c1.5-0.3,3.1-0.7,4.5-1.1c1.4-0.3,2.8-0.6,4-0.8
				c2.3-0.4,4-0.6,4-0.6L54.9,91.1z"/>
		</g>
		<path id="XMLID_4_" class="st9" d="M48.2,97.9c0,0,0-0.1-0.1-0.1c0-0.2-0.1-0.3-0.3-0.4c0,0-0.2-0.1-0.3-0.1c-0.1,0-0.3,0-0.4,0
			c-0.1,0-0.4,0.1-0.5,0.2c-0.3,0.1-0.4,0.3-0.5,0.6c-0.1,0.2-0.1,0.4,0,0.5c0.4,0.2,0.8,0.4,1.2,0.3c0.1,0,0.3-0.1,0.4-0.2
			c0.1-0.1,0.2-0.2,0.2-0.4c0.1-0.1,0.1-0.1,0.1-0.2C48.1,98.2,48.2,98,48.2,97.9z"/>
	</g>
</g>
</svg>
